# xmcd
#
# Track frame offsets:
#	150
#	18836
#	30342
#	40930
#	56904
#	67094
#	79224
#	91532
#	105930
#	118820
#	127564
#	138704
#	146268
#	156876
#	181462
#	191976
#	204940
#	216120
#
# Disc length: 3128 seconds
# Revision: 0
# Processed by: cddbd v1.5.2PL0 Copyright (c) Steve Scherf et al.
# Submitted via: dBpowerAMP V12.0
#
DISCID=f30c3612
DTITLE=Albert Collins - The Complete Imperial Recordings [Capitol] (t)
DYEAR=1991
DGENRE=Blues
TTITLE0=Do The Sissy
TTITLE1=Collins' Mix
TTITLE2=Let's Get It Together
TTITLE3=Got A Good Thing Goin'
TTITLE4=All About My Girl (Left Overs)
TTITLE5=Stump Poker
TTITLE6=Let's Get It Together Again
TTITLE7=Ain't Got Time
TTITLE8=Turnin' On
TTITLE9=Whatcha Say (I Don't Know)
TTITLE10=Pushin'
TTITLE11=Doin' My Thing
TTITLE12=Harris County Line-Up
TTITLE13=Conversation With Collins
TTITLE14=Jawing
TTITLE15=Grapeland Gossip
TTITLE16=Chatterbox
TTITLE17=Trash Talkin'
EXTD=
EXTT0=
EXTT1=
EXTT2=
EXTT3=
EXTT4=
EXTT5=
EXTT6=
EXTT7=
EXTT8=
EXTT9=
EXTT10=
EXTT11=
EXTT12=
EXTT13=
EXTT14=
EXTT15=
EXTT16=
EXTT17=
PLAYORDER=
